<svg width="513" height="532" viewBox="0 0 513 532" fill="none" xmlns="http://www.w3.org/2000/svg">
<path d="M408.726 450.169C372.117 478.54 327.884 495.357 281.674 498.472C235.464 501.588 189.373 490.861 149.288 467.661C109.202 444.461 76.94 409.842 56.6206 368.222C36.3012 326.602 28.8467 279.87 35.2086 233.994C41.5706 188.118 61.4605 145.179 92.3387 110.659C123.217 76.1392 163.682 51.605 208.569 40.1889C253.455 28.7729 300.725 30.993 344.343 46.5659C387.962 62.1387 425.95 90.3577 453.456 127.62" stroke="white" stroke-width="65" stroke-linecap="square"/>
<path d="M508.829 201.456L388.184 171.42C386.182 170.921 385.611 168.349 387.214 167.051L503.563 72.8336C505.166 71.5352 507.563 72.6282 507.635 74.6901L511.931 198.944C511.989 200.604 510.441 201.858 508.829 201.456Z" fill="white" stroke="white"/>
</svg>
