<svg width="532" height="532" viewBox="0 0 532 532" fill="none" xmlns="http://www.w3.org/2000/svg">
<g clip-path="url(#clip0_0_1)">
<path d="M461.41 139.099C478.075 164.761 489.522 193.453 495.098 223.539C500.674 253.625 500.27 284.514 493.908 314.443C487.547 344.373 475.352 372.756 458.021 397.973C440.69 423.189 418.563 444.745 392.901 461.41C367.239 478.075 338.546 489.522 308.461 495.098C278.375 500.674 247.486 500.27 217.557 493.908C187.627 487.547 159.244 475.352 134.027 458.021C108.811 440.69 87.2546 418.563 70.5897 392.901C53.9249 367.239 42.4776 338.546 36.9016 308.461C31.3255 278.375 31.7299 247.486 38.0916 217.557C44.4533 187.627 56.6477 159.244 73.9786 134.027C91.3095 108.811 113.437 87.2546 139.099 70.5897C164.761 53.9249 193.453 42.4776 223.539 36.9016C253.625 31.3255 284.514 31.7299 314.443 38.0916C344.373 44.4533 372.756 56.6477 397.973 73.9786C423.189 91.3095 444.745 113.437 461.41 139.099Z" stroke="white" stroke-width="65" stroke-linecap="square"/>
<path d="M354 237.012H178V293.953H354V237.012Z" fill="white"/>
<path d="M237.012 178V354H293.953V178H237.012Z" fill="white"/>
</g>
<defs>
<clipPath id="clip0_0_1">
<rect width="532" height="532" fill="white"/>
</clipPath>
</defs>
</svg>
